<svg xmlns="http://www.w3.org/2000/svg" width="331" height="100" viewBox="0 0 331 100">
	<path fill="#ee2922" d="M231.395 49.158c-2.025 0-3.67 1.652-3.67 3.671 0 2.039 1.646 3.675 3.67 3.675 2.022 0 3.666-1.636 3.666-3.675 0-2.018-1.643-3.671-3.666-3.671zM104.206 52.648c0 0 1.831-6.13 2.109-7.090 0.741-2.494 1.848-6.421 1.848-6.421s0.182 0 0.182 0c0 0 1.019 4.070 1.685 6.385 0.261 0.9 2.010 7.126 2.010 7.126s-7.833 0-7.833 0zM115.352 63.779c0 0 6.625 0 6.625 0s-10.005-30.585-10.005-30.585c-1.053-0.355-2.368-0.578-3.756-0.578-1.517 0-2.058 0.202-3.248 0.578 0 0-10.611 30.585-10.611 30.585s6.345 0 6.345 0c0 0 0.851-2.678 1.891-6.006 0 0 10.973 0 10.973 0 0.989 3.325 1.787 6.006 1.787 6.006zM329.687 63.779c0 0-3.137-6.696-3.906-8.21-0.866-1.719-1.663-2.904-3.435-3.325 0 0 0-0.1 0-0.1 1.187-0.224 2.13-0.943 3.149-3.13 0.983-2.14 1.275-2.597 1.849-3.103 0.565-0.512 1.337-0.317 1.337-0.317s0.291-3.983 0.291-3.983c-0.825-0.11-1.735-0.111-2.676-0.060-1.553 0.096-2.365 0.538-3.126 1.315-0.595 0.591-1.007 1.474-1.513 2.509-0.54 1.105-0.964 1.999-1.506 3.126-0.553 1.152-0.823 1.667-2.312 1.667 0 0-0.966 0-0.966 0s0-8.269 0-8.269c0 0-5.774 0-5.774 0s0 21.88 0 21.88c0 0 5.774 0 5.774 0s0-8.941 0-8.941c0 0 0.786-0.013 0.786-0.013 1.641 0 1.922 0.409 2.794 2.14 1.026 2.070 2.965 6.814 2.965 6.814s6.267 0 6.267 0zM306.084 63.779c0 0 0-21.88 0-21.88s-5.753 0-5.753 0c0 0 0 8.272 0 8.272s-6.511 0-6.511 0c0 0 0-8.272 0-8.272s-5.742 0-5.742 0c0 0 0 21.88 0 21.88s5.742 0 5.742 0c0 0 0-8.934 0-8.934s6.511 0 6.511 0c0 0 0 8.934 0 8.934s5.753 0 5.753 0zM148.046 41.7c0 0-0.023 20.929-0.023 20.929 2.726 1.151 5.721 1.669 8.382 1.669 6.106 0 9.374-3.157 9.374-8.359 0-4.708-2.893-7.62-8.299-7.62-1.373 0-2.178 0.182-3.687 0.544 0 0 0-7.162 0-7.162s-5.748 0-5.748 0zM159.833 56.205c0 2.159-0.76 3.638-3.522 3.638-0.93 0-1.313 0-2.52-0.339 0 0 0-6.31 0-6.31 1.498-0.291 1.631-0.34 2.52-0.34 2.64 0 3.522 1.284 3.522 3.351zM285.066 61.679c-1.523-2.308-1.917-3.67-1.917-6.574 0 0 0-5.894 0-5.894 0-3.184-0.365-4.352-1.206-5.519-1.17-1.637-3.113-2.345-6.704-2.345-2.535 0-5.018 0.274-7.394 0.879 0 0 0.85 4.221 0.85 4.221 1.612-0.225 3.306-0.42 4.521-0.42 3.801 0 4.24 0.555 4.24 3.406 0 0 0 1.069 0 1.069-0.844-0.228-1.793-0.392-2.903-0.392-5.749 0-8.776 2.804-8.776 7.433 0 4.351 3.235 6.726 7.195 6.726 1.474 0 3.006-0.274 4.221-0.765 0.735-0.324 1.054-0.506 2.001-1.131 0.574 0.842 1.725 1.693 2.192 1.847 0 0 3.681-2.543 3.681-2.543zM277.756 59.157c-1.262 0.438-2.093 0.538-3.096 0.538-2.059 0-3.218-0.813-3.218-2.922 0-2.195 1.474-2.939 4.324-2.939 0.692 0 1.376 0.105 1.69 0.217 0 0 0 1.574 0 1.574 0 1.698 0.092 2.809 0.3 3.532zM221.623 61.679c-1.517-2.308-1.911-3.67-1.911-6.574 0 0 0-5.894 0-5.894 0-3.184-0.369-4.352-1.213-5.519-1.163-1.637-3.111-2.345-6.7-2.345-2.53 0-5.020 0.274-7.398 0.879 0 0 0.853 4.221 0.853 4.221 1.617-0.225 3.302-0.42 4.521-0.42 3.807 0 4.247 0.555 4.247 3.406 0 0 0 1.069 0 1.069-0.846-0.228-1.8-0.392-2.907-0.392-5.753 0-8.781 2.804-8.781 7.433 0 4.351 3.233 6.726 7.199 6.726 1.472 0 3.008-0.274 4.222-0.765 0.731-0.324 1.050-0.506 2.001-1.131 0.574 0.842 1.719 1.693 2.188 1.847 0 0 3.679-2.543 3.679-2.543zM214.317 59.157c-1.265 0.438-2.096 0.538-3.094 0.538-2.057 0-3.227-0.813-3.227-2.922 0-2.195 1.476-2.939 4.325-2.939 0.686 0 1.376 0.105 1.699 0.217 0 0 0 1.574 0 1.574 0 1.698 0.084 2.809 0.296 3.532zM143.487 63.779c0 0 0-21.083 0-21.083-3.157-0.941-5.586-1.348-8.754-1.348-3.165 0-5.534 0.408-8.693 1.348 0 0 0 10.794 0 10.794 0 2.935-0.051 3.816-0.37 4.765-0.318 0.831-0.744 1.83-1.902 2.601 0 0 1.567 3.366 1.567 3.366 4.617-1.304 6.356-3.312 6.356-9.698 0 0 0-7.942 0-7.942 1.525-0.223 1.827-0.274 3.042-0.274 1.224 0 1.478 0.051 3 0.274 0 0 0 17.196 0 17.196s5.754 0 5.754 0zM187 70.946c0 0 0-7.861 0-7.861 0.728 0.431 2.181 1.067 4.63 1.067 4.87 0 8.459-4.047 8.459-11.443 0-7.967-3.565-11.377-9.425-11.377-1.489 0-2.457 0.153-3.664 0.728 0 0 0-9.392 0-9.392s-5.727 0-5.727 0c0 0 0 9.392 0 9.392-1.204-0.575-2.179-0.728-3.666-0.728-5.86 0-9.427 3.551-9.427 11.512 0 7.399 3.225 11.307 8.452 11.307 2.459 0 3.912-0.636 4.641-1.067 0 0 0 7.861 0 7.861s5.727 0 5.727 0zM174.085 52.845c0-4.392 1.323-6.714 3.961-6.714 1.114 0 1.853-0.007 3.227 0.65 0 0 0 12.080 0 12.080-1.247 0.409-1.836 0.465-2.948 0.465-3.006 0-4.239-2.454-4.239-6.482zM194.186 52.709c0 4.023-1.602 6.617-4.24 6.617-1.107 0-1.695-0.056-2.946-0.465 0 0 0-12.080 0-12.080 1.373-0.657 2.112-0.65 3.222-0.65 2.642 0 3.963 2.182 3.963 6.578zM263.583 54.281c0-5.421-3.175-9.155-9.847-9.155-1.639 0-2.783 0.156-4.55 0.574 0 0-0.013-7.803-0.013-7.803 1.099-0.156 2.982-0.293 5.056-0.293 1.963 0 4.448 0.107 6.629 0.374 0 0 0.152-4.521 0.152-4.521-2.479-0.556-6.074-0.896-8.864-0.896-2.749 0-7.024 0.688-9.059 1.238 0 0-0.003 28.841-0.003 28.841 3.173 1.162 6.269 1.693 9.449 1.693 7.275 0 11.049-3.856 11.049-10.051zM257.466 54.718c0 2.923-1.617 4.847-4.598 4.847-1.178 0-2.144 0.004-3.683-0.416 0 0 0-8.849 0-8.849 0.679-0.111 2.082-0.329 3.683-0.271 3.030 0.114 4.598 1.529 4.598 4.689zM32.686 16.804c0 0-8.606 25.834-8.606 25.834s17.347 0 17.347 0c0 0-8.634-25.834-8.634-25.834s-0.107 0-0.107 0zM2.529 85.592c-0.533 0-0.964 0.442-0.964 0.988 0 0 0 10.986 0 10.986 0 0.548 0.431 0.987 0.964 0.987 0 0 60.415 0 60.415 0 0.529 0 0.956-0.439 0.956-0.987 0 0 0-10.986 0-10.986 0-0.546-0.427-0.988-0.956-0.988 0 0-60.415 0-60.415 0zM32.737 1.446c6.612 0 8.69 4.736 10.427 9.477 0.737 2.005 17.911 49.033 18.424 50.444 0.144 0.389 0.049 1.040-0.557 1.27-0.609 0.232-9.534 3.702-10.025 3.887-0.493 0.186-1.049-0.088-1.231-0.579-0.183-0.488-3.882-10.739-4.299-11.887-1.23 0-24.216 0-25.445 0-0.418 1.148-4.156 11.417-4.328 11.887s-0.706 0.786-1.228 0.579c-0.523-0.209-9.488-3.682-10.018-3.887-0.513-0.195-0.748-0.778-0.567-1.27 0.632-1.765 17.543-48.038 18.409-50.444 1.673-4.665 3.828-9.477 10.437-9.477z"/>
</svg>
