<?xml version="1.0" encoding="utf-8"?>
<!-- Generator: Adobe Illustrator 23.0.3, SVG Export Plug-In . SVG Version: 6.00 Build 0)  -->
<svg version="1.1" id="Logo" xmlns="http://www.w3.org/2000/svg" xmlns:xlink="http://www.w3.org/1999/xlink" x="0px" y="0px"
	 viewBox="0 0 236 80" style="enable-background:new 0 0 236 80;" xml:space="preserve">
<style type="text/css">
	.st0{fill:#F57D07;}
	.st1{fill:url(#D_1_);}
</style>
<g id="Text" transform="translate(0.000000, 7.000000)">
	<path id="Shape" class="st0" d="M20.2,11.4c-0.4,5.5-4.2,11-11.8,11H0L1.9,0.8h8.5C17.8,0.8,20.6,6,20.2,11.4z M4.4,18.4h4.4
		c4.9,0,7.2-3.6,7.4-7.1C16.4,8,14.7,4.6,10,4.6H5.6L4.4,18.4z"/>
	<path class="st0" d="M44.4,11.7c-0.5,5.6-4.4,11.2-12.1,11.2s-10.6-5.5-10.1-11.1S26.9,0.3,34.3,0.3S45,6,44.4,11.7z M26.3,11.8
		c-0.2,3.6,1.4,7.3,6.4,7.3s7.3-3.8,7.7-7.4C40.8,8.2,39.1,4,34,4S26.5,8.1,26.3,11.8L26.3,11.8z"/>
	<polygon id="Path" class="st0" points="62.6,0.7 66.7,0.7 64.8,22.4 62.2,22.4 62.2,22.4 52.2,7.8 50.9,22.4 46.8,22.4 48.7,0.8 
		52,0.8 61.4,14.2 	"/>
	<path class="st0" d="M84.2,18.3H72.9l-2.2,4.1h-4.4L77.8,0.8h4.5l7.8,21.6h-4.4L84.2,18.3z M79.7,5.3l-4.8,9.2h8L79.7,5.3z"/>
	<polygon class="st0" points="95.6,4.5 88.7,4.5 89,0.8 106.8,0.8 106.5,4.5 99.6,4.5 98.1,22.4 94,22.4 	"/>
	<polygon class="st0" points="107.4,22.4 109.3,0.8 113.3,0.8 111.4,22.4 	"/>
	<path class="st0" d="M138.1,11.7c-0.6,5.6-4.5,11.2-12.1,11.2s-10.6-5.5-10.1-11.1S120.5,0.3,128,0.3S138.6,6,138.1,11.7z
		 M119.9,11.8c-0.2,3.6,1.4,7.3,6.5,7.3c5.1,0,7.3-3.8,7.7-7.4c0.4-3.6-1.3-7.8-6.4-7.8S120.1,8.1,119.9,11.8z"/>
	<polygon class="st0" points="156.2,0.7 160.3,0.7 158.4,22.4 155.9,22.4 155.9,22.4 145.8,7.8 144.5,22.4 140.5,22.4 142.3,0.8 
		145.6,0.8 155.1,14.2 	"/>
	<path class="st0" d="M53.6,48.9H42.3L40.1,53h-4.4l11.6-21.7h4.4L59.5,53H55L53.6,48.9z M49,35.9l-4.8,9.2h8L49,35.9z"/>
	<polygon class="st0" points="67.6,31.3 66,49.2 77.1,49.2 76.8,53 61.6,53 63.5,31.3 	"/>
	<path class="st0" d="M95.8,53H79.6c0.6-7.2,1.3-14.5,1.9-21.7h16.2l-0.3,4H85.2l-0.4,5h11.7l-0.3,3.8H84.4L84,49h12.1L95.8,53z"/>
	<path class="st0" d="M118.1,53h-4.8l-5.7-7.2h-3.9L103,53h-4l1.9-21.7c3.4,0,6.8,0,10.3,0c5.1,0,7.5,3.4,7.2,7.2
		c-0.1,3.4-2.7,6.3-6.1,6.8l5.9,7.4L118.1,53z M104.6,35.1l-0.6,6.9h6.2c1,0.1,2-0.3,2.7-0.9c0.8-0.7,1.2-1.6,1.3-2.6
		c0.1-0.9-0.2-1.9-0.8-2.6c-0.7-0.7-1.6-1-2.6-0.9H104.6z"/>
	<polygon class="st0" points="127.9,35 121,35 121.3,31.3 139.1,31.3 138.8,35 131.9,35 130.4,53 126.3,53 	"/>
	<path class="st0" d="M154.5,36.5c-0.6-1.2-2.6-2.4-4.9-2.4c-3,0-4.6,1.3-4.7,2.9c-0.2,1.9,2,2.4,4.6,2.7c4.5,0.6,8.6,1.7,8.1,6.9
		c-0.4,4.8-4.9,6.9-9.7,6.9c-4.4,0-7.7-1.4-9-5.3l3.6-1.8c0.8,2.4,3.2,3.4,5.8,3.4c2.6,0,5.1-0.9,5.2-3.2c0.2-2-1.9-2.9-4.7-3.2
		c-4.4-0.5-8.3-1.7-7.9-6.6c0.4-4.5,4.9-6.3,8.9-6.3c3.4,0,6.8,1,8.1,4.3L154.5,36.5z"/>
</g>
<g id="Alert" transform="translate(166.000000, 0.000000)">
	
		<linearGradient id="D_1_" gradientUnits="userSpaceOnUse" x1="-341.5981" y1="456.1763" x2="-342.3327" y2="455.1763" gradientTransform="matrix(68.4058 0 0 -79.8102 23421.9238 36402.6836)">
		<stop  offset="0" style="stop-color:#F59C07"/>
		<stop  offset="1" style="stop-color:#F57507"/>
	</linearGradient>
	<path id="D" class="st1" d="M68.6,17.7L54.4,1.2C53.7,0.4,52.8,0,51.8,0H9.4C7.6,0,6.2,1.3,6,3L0.9,61c-0.1,0.9,0.2,1.9,0.9,2.6
		s1.5,1.1,2.5,1.1h8.3l-1.3,15.1l16.4-15.1h18.6c0.9,0,1.7-0.3,2.3-1l17.5-17c0.6-0.6,0.9-1.3,1-2.1l2.1-24.5
		C69.4,19.3,69.1,18.4,68.6,17.7z M55.6,40c-0.1,0.8-0.4,1.6-1,2.1l-10.1,9.7c-0.6,0.6-1.5,0.9-2.3,0.9H17.4c-1.5,0-2.8-1-3.2-2.4
		C14,49.9,14,49.5,14,49.1l3-34c0.1-1.7,1.6-3.1,3.3-3.1h25.2c1,0,1.9,0.4,2.5,1.1l8,9.2c0.6,0.7,0.9,1.6,0.8,2.5L55.6,40z
		 M35.8,46.5h-4.9c-0.3,0-0.6-0.1-0.7-0.3s-0.3-0.5-0.3-0.8l0.4-4.9c0-0.5,0.5-0.9,1-0.9h4.9c0.3,0,0.6,0.1,0.7,0.3s0.3,0.5,0.3,0.8
		l-0.4,4.9C36.8,46.1,36.3,46.5,35.8,46.5L35.8,46.5z M36.7,37.2h-5c-0.6,0-1-0.4-1-1L32,20.7c0.1-0.5,0.5-0.9,1-0.9h5
		c0.6,0,1,0.4,1,1l-1.4,15.5C37.6,36.8,37.2,37.2,36.7,37.2z"/>
</g>
</svg>
