<svg xmlns="http://www.w3.org/2000/svg" viewBox="0 0 403 100">
	<path fill="#253b80" d="M151.131 23.006h-22.135c-1.515 0-2.803 1.1-3.039 2.596l-8.952 56.76c-0.178 1.12 0.689 2.129 1.826 2.129h10.567c1.515 0 2.803-1.1 3.039-2.599l2.415-15.309c0.233-1.498 1.525-2.599 3.036-2.599h7.007c14.581 0 22.996-7.056 25.194-21.038 0.99-6.117 0.042-10.923-2.822-14.289-3.146-3.696-8.726-5.651-16.134-5.651zM153.685 43.736c-1.211 7.942-7.279 7.942-13.147 7.942h-3.34l2.343-14.833c0.139-0.896 0.916-1.557 1.822-1.557h1.531c3.997 0 7.767 0 9.716 2.279 1.162 1.359 1.518 3.379 1.075 6.169z"/>
	<path fill="#253b80" d="M217.296 43.48h-10.599c-0.903 0-1.683 0.661-1.822 1.557l-0.469 2.964-0.741-1.075c-2.295-3.33-7.412-4.444-12.519-4.444-11.713 0-21.717 8.871-23.666 21.316-1.013 6.208 0.427 12.144 3.949 16.283 3.23 3.806 7.852 5.392 13.351 5.392 9.438 0 14.671-6.069 14.671-6.069l-0.472 2.946c-0.178 1.126 0.689 2.136 1.819 2.136h9.548c1.518 0 2.8-1.1 3.039-2.599l5.729-36.279c0.181-1.117-0.683-2.129-1.816-2.129zM202.521 64.11c-1.023 6.056-5.829 10.121-11.959 10.121-3.078 0-5.538-0.987-7.117-2.858-1.566-1.858-2.162-4.502-1.664-7.447 0.955-6.004 5.842-10.202 11.878-10.202 3.010 0 5.457 1 7.069 2.887 1.615 1.906 2.256 4.567 1.793 7.499z"/>
	<path fill="#253b80" d="M273.748 43.48h-10.652c-1.016 0-1.971 0.505-2.547 1.35l-14.691 21.64-6.227-20.795c-0.391-1.301-1.592-2.194-2.952-2.194h-10.467c-1.272 0-2.155 1.243-1.751 2.441l11.732 34.43-11.030 15.571c-0.867 1.226 0.006 2.913 1.505 2.913h10.639c1.010 0 1.955-0.492 2.528-1.32l35.427-51.138c0.848-1.223-0.023-2.897-1.515-2.897z"/>
	<path fill="#179bd7" d="M309.014 23.006h-22.138c-1.512 0-2.8 1.1-3.036 2.596l-8.952 56.76c-0.178 1.12 0.689 2.129 1.819 2.129h11.36c1.055 0 1.958-0.77 2.123-1.819l2.541-16.089c0.233-1.498 1.525-2.599 3.036-2.599h7.004c14.584 0 22.996-7.056 25.197-21.038 0.993-6.117 0.039-10.923-2.825-14.289-3.143-3.696-8.719-5.651-16.128-5.651zM311.568 43.736c-1.207 7.942-7.276 7.942-13.147 7.942h-3.337l2.346-14.833c0.139-0.896 0.909-1.557 1.819-1.557h1.531c3.994 0 7.767 0 9.716 2.279 1.162 1.359 1.515 3.379 1.071 6.169z"/>
	<path fill="#179bd7" d="M375.176 43.48h-10.593c-0.909 0-1.683 0.661-1.819 1.557l-0.469 2.964-0.744-1.075c-2.295-3.33-7.409-4.444-12.516-4.444-11.713 0-21.714 8.871-23.663 21.316-1.010 6.208 0.424 12.144 3.946 16.283 3.237 3.806 7.852 5.392 13.351 5.392 9.438 0 14.671-6.069 14.671-6.069l-0.472 2.946c-0.178 1.126 0.689 2.136 1.826 2.136h9.545c1.512 0 2.8-1.1 3.036-2.599l5.732-36.279c0.175-1.117-0.693-2.129-1.829-2.129zM360.401 64.11c-1.016 6.056-5.829 10.121-11.959 10.121-3.071 0-5.538-0.987-7.117-2.858-1.566-1.858-2.155-4.502-1.664-7.447 0.961-6.004 5.842-10.202 11.878-10.202 3.010 0 5.457 1 7.069 2.887 1.622 1.906 2.262 4.567 1.793 7.499z"/>
	<path fill="#179bd7" d="M387.673 24.563l-9.085 57.799c-0.178 1.12 0.689 2.129 1.819 2.129h9.133c1.518 0 2.806-1.1 3.039-2.599l8.958-56.757c0.178-1.12-0.689-2.133-1.819-2.133h-10.227c-0.903 0.003-1.68 0.664-1.819 1.56z"/>
	<path fill="#253b80" d="M25.083 95.521l1.692-10.752-3.771-0.088h-18.005l12.513-79.338c0.039-0.239 0.165-0.463 0.35-0.622s0.421-0.246 0.667-0.246h30.359c10.079 0 17.034 2.097 20.665 6.237 1.703 1.942 2.787 3.971 3.311 6.205 0.55 2.343 0.56 5.143 0.023 8.557l-0.039 0.249v2.188l1.703 0.964c1.434 0.761 2.573 1.631 3.447 2.628 1.456 1.66 2.398 3.771 2.796 6.272 0.411 2.573 0.275 5.635-0.398 9.101-0.777 3.988-2.033 7.46-3.728 10.302-1.56 2.618-3.547 4.79-5.907 6.473-2.253 1.599-4.929 2.813-7.955 3.589-2.932 0.764-6.276 1.149-9.943 1.149h-2.363c-1.689 0-3.33 0.609-4.618 1.699-1.291 1.114-2.146 2.634-2.408 4.299l-0.178 0.968-2.991 18.95-0.136 0.696c-0.035 0.22-0.097 0.33-0.188 0.404-0.081 0.068-0.198 0.113-0.311 0.113h-14.587z"/>
	<path fill="#179bd7" d="M76.162 25.977v0 0c-0.091 0.579-0.194 1.172-0.311 1.78-4.003 20.555-17.701 27.657-35.194 27.657h-8.907c-2.139 0-3.942 1.554-4.275 3.664v0 0l-4.561 28.922-1.291 8.198c-0.217 1.385 0.851 2.634 2.249 2.634h15.798c1.871 0 3.46-1.359 3.754-3.204l0.155-0.803 2.974-18.876 0.191-1.036c0.291-1.851 1.884-3.211 3.754-3.211h2.363c15.306 0 27.288-6.214 30.79-24.197 1.463-7.512 0.705-13.785-3.165-18.196-1.172-1.33-2.625-2.434-4.324-3.333z"/>
	<path fill="#222d65" d="M71.974 24.306c-0.612-0.178-1.243-0.34-1.89-0.486-0.651-0.142-1.317-0.269-2.004-0.379-2.401-0.388-5.033-0.573-7.852-0.573h-23.795c-0.586 0-1.143 0.133-1.641 0.372-1.097 0.528-1.913 1.566-2.11 2.838l-5.062 32.062-0.146 0.936c0.334-2.11 2.136-3.664 4.275-3.664h8.907c17.493 0 31.191-7.104 35.194-27.657 0.12-0.609 0.22-1.201 0.311-1.78-1.013-0.538-2.11-0.997-3.291-1.389-0.291-0.097-0.592-0.191-0.896-0.281z"/>
	<path fill="#253b80" d="M32.683 26.080c0.198-1.272 1.013-2.311 2.11-2.835 0.502-0.239 1.055-0.372 1.641-0.372h23.795c2.819 0 5.451 0.185 7.852 0.573 0.686 0.11 1.353 0.236 2.004 0.379 0.647 0.146 1.279 0.308 1.89 0.486 0.304 0.091 0.605 0.185 0.9 0.278 1.181 0.391 2.279 0.854 3.291 1.389 1.191-7.596-0.010-12.768-4.117-17.452-4.528-5.156-12.7-7.363-23.158-7.363h-30.359c-2.136 0-3.958 1.554-4.289 3.667l-12.645 80.153c-0.249 1.586 0.974 3.017 2.573 3.017h18.743l4.706-29.858 5.062-32.062z"/>
</svg>
