<svg xmlns="http://www.w3.org/2000/svg" viewBox="0 0 394 100">
	<path fill="#1d70bf" d="M342.986 1.162c7.668 0 14.931 1.786 21.397 4.956 1.017 0.482 2.030 1.012 3.045 1.598l-4.495 4.025-6.754-6.984-11.4 10.169-6.771-7.39-21.237 19.142 13.614 15.005-5.35 4.705 13.41 15.027-5.32 4.695 19.163 21.33 11.375-10.472 9.833 11.221c-1.955 1.521-4.086 2.952-6.433 4.274-7.112 4.056-15.331 6.377-24.077 6.377-26.9 0-48.837-21.941-48.837-48.837 0-26.902 21.937-48.84 48.837-48.84v0z"/>
	<path fill="#1d70bf" d="M334.085 46.914l11.613-10.458 10.458 11.616-11.613 10.455-10.458-11.613z"/>
	<path fill="#1d70bf" d="M342.343 66.982l11.613-10.456 10.458 11.614-11.613 10.458-10.458-11.616z"/>
	<path fill="#1d70bf" d="M325.776 27.082l11.613-10.455 10.454 11.613-11.613 10.456-10.454-11.614z"/>
	<path fill="#1d70bf" d="M347.086 21.454l8.71-7.841 7.842 8.71-8.709 7.844-7.842-8.712z"/>
	<path fill="#1d70bf" d="M362.562 57.374l8.713-7.844 7.842 8.712-8.71 7.842-7.844-8.71z"/>
	<path fill="#1d70bf" d="M370.225 74.967l8.707-7.844 7.844 8.709-8.71 7.842-7.842-8.707z"/>
	<path fill="#1d70bf" d="M373.733 34.645l5.806-5.228 5.228 5.807-5.805 5.227-5.23-5.806z"/>
	<path fill="#1d70bf" d="M366.313 17.393l5.808-5.228 5.228 5.806-5.808 5.228-5.228-5.807z"/>
	<path fill="#1d70bf" d="M381.156 51.898l5.806-5.228 5.228 5.806-5.806 5.228-5.228-5.806z"/>
	<path fill="#1d70bf" d="M355.114 38.971l8.71-7.845 7.842 8.71-8.707 7.842-7.844-8.706z"/>
	<path fill="#1d70bf" d="M24.351 41.581h-0.39l-7.356 27.808h-6.017l-9.028-39.509h6.241l6.241 29.479h0.39l7.244-29.479h4.959l7.746 29.479h0.389l5.683-29.479h6.521l-9.028 39.509h-6.018l-7.577-27.808z"/>
	<path fill="#1d70bf" d="M71.666 63.258v4.234c-2.507 1.45-5.85 2.566-9.863 2.566-9.36 0-13.205-5.796-13.205-14.602 0-8.469 4.291-14.599 12.649-14.599 6.964 0 11.255 4.515 11.255 13.597v2.060h-18.165c0 6.686 2.73 9.64 8.47 9.64 3.008 0 5.794-1.059 8.858-2.898zM54.449 52.783h12.759c-0.277-5.852-3.119-8.191-6.129-8.191-3.4 0-6.018 2.619-6.63 8.191z"/>
	<path fill="#1d70bf" d="M83.365 42.921c1.672-0.891 4.513-2.063 7.522-2.063 6.909 0 10.642 4.794 10.642 13.711 0 10.418-5.014 15.49-13.093 15.49-2.955 0-7.523-0.948-10.867-2.733v-38.893l5.796-1.394zM83.31 65.264c1.783 0.781 3.734 0.891 5.127 0.891 4.124 0 7.244-2.563 7.244-11.587 0-7.078-2.564-9.363-6.297-9.363-2.229 0-3.844 0.613-6.074 1.838v18.221z"/>
	<path fill="#1d70bf" d="M126.883 61.029h0.28l11.923-31.15h6.91v39.509h-6.018v-28.642h-0.503l-11.367 28.642h-3.566l-11.369-27.972h-0.501v27.972h-5.015v-39.509h6.742l12.48 31.15z"/>
	<path fill="#1d70bf" d="M152.126 55.457c0-9.752 5.351-14.599 12.704-14.599 7.357 0 12.706 4.848 12.706 14.599 0 9.53-5.071 14.602-12.706 14.602s-12.704-5.072-12.704-14.602zM171.685 55.457c0-7.522-3.065-10.696-6.854-10.696-3.678 0-6.853 3.175-6.853 10.696 0 7.636 2.899 10.699 6.853 10.699 3.957 0 6.854-3.062 6.854-10.699z"/>
	<path fill="#1d70bf" d="M182.83 44.981c2.507-1.505 7.801-4.124 14.208-4.124 6.689 0 9.195 2.619 9.195 8.358v20.173h-5.795v-18.891c0-4.402-2.171-5.182-5.013-5.182-2.23 0-5.072 1.004-6.8 2.006v22.066h-5.795v-24.407z"/>
	<path fill="#1d70bf" d="M234.482 63.258v4.234c-2.506 1.45-5.849 2.566-9.862 2.566-9.359 0-13.206-5.796-13.206-14.602 0-8.469 4.292-14.599 12.65-14.599 6.967 0 11.258 4.515 11.258 13.597v2.060h-18.165c0 6.686 2.729 9.64 8.468 9.64 3.008 0 5.794-1.059 8.857-2.898zM217.266 52.783h12.759c-0.277-5.852-3.121-8.191-6.129-8.191-3.401 0-6.017 2.619-6.63 8.191z"/>
	<path fill="#1d70bf" d="M256.996 41.805h5.962l-10.086 27.861c-2.787 7.691-6.188 11.701-12.592 11.701v-4.567c3.789 0 6.126-3.012 7.466-7.134l-10.7-27.861h6.131l7.131 20.504h0.332l6.354-20.504z"/>
</svg>
