<svg xmlns="http://www.w3.org/2000/svg" viewBox="0 0 407 100">
	<path fill="#f00" d="M17.822 79.913v-24.347l-16.263-43.654h8.179l11.985 33.668 13.789-40.706h7.514l-17.69 50.977v24.062h-7.514z"/>
	<path fill="#000" d="M205.761 31.979l-8.94 22.445 9.986 25.489h-7.703l-7.419-19.783-7.228 19.783h-7.322l9.986-24.823-9.035-23.11h7.703l6.182 17.404 6.561-17.404zM153.643 51.571h12.269c0-8.179-1.332-14.171-5.612-14.171-4.564 0-6.182 5.611-6.657 14.171zM161.822 80.578c-9.892 0-15.978-7.893-15.978-22.634 0-15.407 4.28-26.63 14.456-26.63 7.989 0 13.22 5.992 13.22 22.254v4.090h-19.972c0 10.842 3.043 16.549 8.94 16.549 4.184 0 7.228-1.904 9.13-3.234l1.712 5.705c-3.044 2.378-6.753 3.899-11.508 3.899zM131.008 39.683c-1.523-1.523-3.139-2.283-5.611-2.283-5.992 0-8.846 9.035-8.846 18.83 0 11.223 2.092 18.072 7.514 18.072 3.708 0 5.706-1.808 6.942-3.71zM108.658 57.753c0-17.786 6.657-26.44 16.263-26.44 2.282 0 4.659 0.76 6.087 1.806v-21.209h7.418v68.001h-5.517l-0.57-3.804h-0.476c-2.092 2.663-4.755 4.469-8.654 4.469-9.416 0-14.552-7.988-14.552-22.825zM81.837 79.913h-7.417v-48.029h7.417v4.185h0.477c1.332-1.806 4.945-4.755 9.416-4.755 6.278 0 9.605 3.518 9.605 10.842v37.757h-7.513v-37.091c0-3.615-1.618-4.852-4.471-4.852-3.138 0-5.801 2.378-7.514 4.756zM57.871 54.9h-0.856c-9.225 0-11.223 4.090-11.223 10.271 0 5.515 1.806 9.13 5.61 9.13 2.569 0 5.136-1.713 6.468-3.806zM66.050 79.913h-6.277c-0.284-1.046-0.57-2.567-0.665-3.804h-0.477c-2.092 2.663-4.755 4.469-8.94 4.469-6.847 0-11.508-5.136-11.508-14.55 0-10.271 5.231-16.739 18.641-16.739h1.046v-2.853c0-6.278-2.092-8.94-6.278-8.94-3.804 0-7.037 1.997-9.51 4.185l-1.427-6.563c2.188-1.806 6.563-3.804 11.413-3.804 8.464 0 13.125 3.614 13.125 15.217v22.54c0 4.564 0.475 8.559 0.855 10.842z"/>
	<path fill="#000" d="M232.433 33.406l-1.997 46.506h-3.899l2.948-68.001h5.23l10.176 41.943c0.857 3.328 1.333 6.561 1.618 9.415h0.19c0.284-2.853 0.856-6.087 1.712-9.415l10.462-41.943h5.325l2.948 68.001h-4.566l-1.996-46.888c-0.284-5.326-0.19-9.416-0.19-13.599h-0.287c-0.568 4.278-1.234 8.273-2.28 12.269l-9.511 37.567h-3.709l-9.416-37.567c-0.951-3.71-1.711-7.515-2.187-12.174h-0.286c0 3.709-0.094 9.224-0.284 13.885z"/>
	<path fill="#000" d="M299.399 55.946c0-15.028-4.566-21.209-10.178-21.209s-10.178 6.657-10.178 21.209c0 14.931 4.566 21.303 10.178 21.303s10.178-6.849 10.178-21.303zM274.575 56.23c0-15.978 6.374-25.203 14.647-25.203s14.644 8.179 14.644 24.633c0 15.882-6.371 25.203-14.644 25.203s-14.647-8.274-14.647-24.633z"/>
	<path fill="#000" d="M316.526 44.914v34.998h-4.472v-47.934h4.092l0.19 7.893h0.191c1.33-3.518 5.134-8.844 11.602-8.844 6.374 0 10.081 3.995 10.081 11.603v37.281h-4.469v-36.711c0-5.706-2.092-8.369-6.468-8.369-4.756 0-8.369 3.996-10.746 10.083z"/>
	<path fill="#000" d="M350.485 53.187h17.408c0.759-12.743-3.044-18.449-7.895-18.449-5.040 0-9.132 6.466-9.512 18.449zM360.948 76.964c6.371 0 9.7-5.136 9.7-5.136l1.427 3.614c0 0-3.612 5.422-11.221 5.422-10.175 0-14.838-9.225-14.838-24.917 0-15.693 5.897-24.918 13.982-24.918 8.274 0 13.599 8.655 12.077 25.679h-21.683c0.19 13.125 3.614 20.257 10.556 20.257z"/>
	<path fill="#000" d="M379.12 94.938l-0.475-4.185c0.759 0.19 1.712 0.381 2.948 0.381 3.233 0 5.515-3.139 6.942-8.465l0.381-1.426-11.889-49.266h4.469l7.608 31.29c0.856 3.615 1.524 7.133 1.999 10.843h0.286c0.663-3.806 1.424-7.324 2.28-10.843l7.42-31.29h3.995l-12.271 50.407c-1.618 6.466-4.469 12.743-11.221 12.743-1.046 0-1.808-0.095-2.473-0.191z"/>
</svg>
