<svg xmlns="http://www.w3.org/2000/svg" viewBox="0 0 407 100">
	<path fill="#f00" d="M26.889 17.579h-3.777c-5.71 0-11.237 3.776-11.237 14.737 0 10.592 5.065 14.001 11.237 14.001h3.777zM20.993 52.213l-11.237 25.238h-8.199l12.344-26.989c-5.804-2.947-9.673-8.289-9.673-18.145 0-13.816 8.75-20.725 19.16-20.725h10.592v65.859h-7.092v-25.238h-5.895z"/>
	<path fill="#000" d="M171.787 54.239c0-14.554 5.62-23.857 16.49-23.857 4.144 0 6.539 1.105 8.565 2.394l-1.013 6.818c-1.934-1.659-4.698-3.224-7.645-3.224-5.158 0-8.842 5.803-8.842 17.5 0 11.606 2.762 18.239 8.565 18.239 3.5 0 6.172-1.382 7.829-2.855l1.657 5.342c-2.487 2.117-5.434 3.499-9.671 3.499-9.948 0-15.936-8.013-15.936-23.856zM150.787 54.33v23.12h-7.185v-46.424h7.185v21.462l11.145-21.462h7.278l-11.514 21.83 13.171 24.593h-7.829zM116.982 50.002h11.882c0-7.922-1.29-13.724-5.434-13.724-4.422 0-5.988 5.434-6.448 13.724zM124.904 78.094c-9.579 0-15.474-7.644-15.474-21.92 0-14.924 4.145-25.793 14-25.793 7.737 0 12.804 5.803 12.804 21.553v3.963h-19.344c0 10.502 2.947 16.027 8.658 16.027 4.053 0 7.278-1.842 9.119-3.131l1.659 5.523c-2.947 2.304-6.817 3.778-11.423 3.778zM94.323 36.829h-8.014v0.83c0 9.764-0.46 24.039-4.329 33.896h12.343zM105.1 86.57h-6.447v-9.119h-19.896v9.119h-6.447v-15.014h2.856c4.236-9.857 4.697-24.225 4.697-36.568v-3.961h21.554v40.529h3.683zM68.164 31.026v46.424h-7.093v-20.816h-10.685v20.816h-7.184v-46.424h7.184v19.711h10.685v-19.711h7.093z"/>
	<path fill="#000" d="M241.371 15.368h-14.276c-0.277 16.671-0.738 29.383-1.475 38.871-0.829 9.855-2.303 16.394-4.789 19.436h20.54zM246.252 77.45h-28.185l-0.646 10.961h-3.592v-14.736h1.934c3.224-2.674 4.789-10.042 5.71-19.436 0.921-9.764 1.198-24.318 1.475-42.648h23.027v62.084h4.516v14.736h-3.595l-0.644-10.961z"/>
	<path fill="#000" d="M259.432 51.566h16.859c0.735-12.341-2.949-17.867-7.646-17.867-4.882 0-8.845 6.263-9.213 17.867zM269.564 74.595c6.17 0 9.394-4.972 9.394-4.972l1.383 3.496c0 0-3.5 5.251-10.868 5.251-9.855 0-14.37-8.935-14.37-24.131 0-15.199 5.71-24.133 13.541-24.133 8.012 0 13.169 8.383 11.697 24.872h-21c0.184 12.71 3.499 19.618 10.223 19.618z"/>
	<path fill="#000" d="M308.718 55.068h-15.844v22.382h-4.328v-46.424h4.328v20.539h15.844v-20.539h4.328v46.424h-4.328v-22.382z"/>
	<path fill="#000" d="M327.606 51.659v22.382h2.765c6.539 0 10.961-3.221 10.961-11.237 0-7.828-3.868-11.146-10.502-11.146zM323.281 31.026h4.326v17.226h3.412c8.842 0 14.552 4.789 14.552 14.462 0 9.855-6.080 14.736-14.83 14.736h-7.459v-46.424z"/>
	<path fill="#000" d="M357.273 34.62v42.831h-4.235v-46.424h19.618v3.593h-15.383z"/>
	<path fill="#000" d="M400.942 45.12c0-2.395 0.181-4.422 0.369-6.356h-0.278c-0.644 2.027-1.472 3.961-2.486 5.988l-15.105 32.699h-3.685v-46.424h4.053v32.238c0 2.486-0.188 4.512-0.369 6.539h0.275c0.644-2.117 1.564-4.144 2.487-6.171l15.108-32.607h3.775v46.424h-4.144v-32.331z"/>
</svg>
