<svg xmlns="http://www.w3.org/2000/svg" width="128" height="128" viewBox="0 0 128 128">
	<defs>
		<linearGradient id="b" x1="0" x2="1" y1="1" y2="0">
			<stop offset="0%" stop-color="#55398E"/>
			<stop offset="100%" stop-color="#9F72F9"/>
		</linearGradient>
		<linearGradient id="f">
			<stop offset="10%" stop-color="#C8C4D1"/>
			<stop offset="70%" stop-color="#FFF"/>
		</linearGradient>
	</defs>
	<g>
		<!--<rect fill="url(#b)" x="0" y="0" width="128" height="128"/>-->
		<path fill="url(#b)" d="M116 0s12 0 12 12V116s0 12-12 12H12s-12 0-12-12V12s0-12 12-12z"/>
		<path fill="url(#f)" d="M64 53h-19.688l-1.313-15.225h57l1.313-14.7h-74.55l3.937 44.888h51.712l-1.8 19.162-16.6 4.463l-16.8-4.463-1.1-11.813h-14.7l1.838 23.362 30.713 8.4l30.45-8.4 4.2-45.675z"/>
	</g>
</svg>
