<svg xmlns="http://www.w3.org/2000/svg" width="128" height="128" viewBox="0 0 24 24">
	<g>
		<path fill="#858585" d="M3.72 13.032l-2.268-1.316c-0.862 1.633-1.361 3.448-1.452 5.353h2.631c0.091-1.406 0.454-2.813 1.089-4.038z"/>
		<path fill="#965555" d="M7.304 8.994l-1.316-2.268c-1.588 0.998-2.904 2.359-3.947 3.947l2.268 1.316c0.771-1.179 1.815-2.223 2.994-2.994z"/>
		<path fill="#b33b3b" d="M12.385 7.315v-2.631c-1.905 0.091-3.765 0.59-5.353 1.452l1.316 2.268c1.225-0.635 2.631-0.998 4.038-1.089z"/>
		<path fill="#da2625" d="M17.694 8.404l1.316-2.268c-1.633-0.862-3.448-1.361-5.353-1.452v2.631c1.452 0.091 2.813 0.454 4.038 1.089z"/>
		<path fill="#f11" d="M21.731 11.988l2.268-1.316c-0.998-1.588-2.359-2.904-3.947-3.947l-1.316 2.268c1.18 0.771 2.223 1.815 2.994 2.994z"/>
		<path fill="#555" d="M13.429 17.658c-0.363 0.272-0.862 0.181-1.134-0.181s-0.181-0.862 0.181-1.134l9.3-5.626-8.348 6.941z"/>
	</g>
</svg>
